<svg xmlns="http://www.w3.org/2000/svg" viewBox="0 0 24 24">
  <path fill="currentColor" d="M12 0C5.37 0 0 5.37 0 12a12 12 0 008.21 11.43c.6.11.82-.26.82-.58v-2.17c-3.34.73-4.04-1.61-4.04-1.61-.55-1.39-1.35-1.76-1.35-1.76-1.1-.75.08-.73.08-.73 1.22.09 1.86 1.26 1.86 1.26 1.08 1.85 2.84 1.32 3.53 1.01.11-.78.42-1.32.77-1.63-2.66-.3-5.47-1.33-5.47-5.91 0-1.31.47-2.38 1.25-3.22-.13-.31-.54-1.54.12-3.22 0 0 1-.32 3.3 1.23A11.5 11.5 0 0112 6.8c1.02.01 2.05.14 3.01.41 2.29-1.55 3.29-1.23 3.29-1.23.66 1.68.25 2.91.12 3.22.78.84 1.25 1.91 1.25 3.22 0 4.59-2.81 5.6-5.49 5.89.43.37.82 1.1.82 2.22v3.29c0 .32.22.7.83.58A12 12 0 0024 12c0-6.63-5.37-12-12-12z"></path>
</svg>
